<?xml version="1.0" encoding="utf-8"?>
<!-- Generator: Adobe Illustrator 25.0.0, SVG Export Plug-In . SVG Version: 6.00 Build 0)  -->
<svg version="1.1" xmlns="http://www.w3.org/2000/svg" xmlns:xlink="http://www.w3.org/1999/xlink" x="0px" y="0px"
	 viewBox="0 0 983.8 500.4" style="enable-background:new 0 0 983.8 500.4;" xml:space="preserve">
<style type="text/css">
	.st0{fill:#FFFFFF;}
	.st1{fill:none;stroke:#000000;stroke-width:20;stroke-linecap:round;stroke-linejoin:round;stroke-miterlimit:10;}
	.st2{fill:none;stroke:#000000;stroke-width:25;stroke-linecap:round;stroke-linejoin:round;stroke-miterlimit:10;}
	.st3{fill:none;stroke:#FFFFFF;stroke-width:20;stroke-linecap:round;stroke-linejoin:round;stroke-miterlimit:10;}
	.st4{fill:none;stroke:#FFFFFF;stroke-width:25;stroke-linecap:round;stroke-linejoin:round;stroke-miterlimit:10;}
</style>
<g id="Layer_1">
	
		<image style="overflow:visible;" width="1904" height="1032" xlink:href="43693AFF.jpg"  transform="matrix(1 0 0 1 -4295.6831 -2157.3464)">
	</image>
	<path class="st0" d="M-3312.4-1625.8c8-8.4,18.7-18.7,32-31c13.3-12.3,28.2-24.7,44.6-37c16.4-12.4,33.7-24.1,51.9-35.3
		c18.2-11.1,36.1-19.8,53.6-26.1c17.5-6.3,34.3-9.1,50.3-8.6c16,0.5,29.8,6.1,41.5,16.7c5.1,4.7,7.7,10.1,7.8,16.1
		c0.1,6-1.6,12.3-4.9,18.8c-3.3,6.5-7.9,12.9-13.5,19.3c-5.7,6.3-11.6,12.2-17.9,17.7c-6.3,5.5-12.4,10.2-18.2,14
		c-5.9,3.8-10.5,6.3-13.8,7.5c-7.5,3-14.4,4.5-20.6,4.5c-6.2,0-11.1-0.8-14.8-2.5c-3.7-1.6-5.6-3.7-5.9-6.4
		c-0.3-2.7,1.8-5.1,6.2-7.4c3.4-1.9,8.1-4.9,14.1-8.9c6-4,12.2-8.6,18.9-13.7c6.6-5.1,13-10.6,19.2-16.4
		c6.2-5.8,11.4-11.3,15.6-16.4c4.2-5.1,6.8-9.7,7.7-13.8c0.9-4.1-0.5-7.2-4.3-9.3c-8.7-4.1-19.8-4-33.4,0.3
		c-13.6,4.3-28.5,11.7-44.7,22.1c-16.2,10.4-33.2,23.2-50.9,38.2c-17.7,15.1-35.1,31.3-52.3,48.8c-17.2,17.5-33.4,35.4-48.7,53.7
		c-15.3,18.4-28.7,36.1-40.1,53.2c-11.4,17.1-20.2,33-26.4,47.6s-8.6,26.5-7.4,35.7c0.8,6.2,3.6,9,8.2,8.4c4.6-0.6,9.8-2.5,15.5-5.8
		c5.7-3.2,11.3-7,16.8-11.4c5.5-4.4,9.5-7.3,12-8.9c10.8-7.3,22-15.2,33.6-23.6c11.6-8.4,23.4-16.6,35.4-24.5
		c12-7.9,24-15.3,36.2-22.2c12.2-6.9,24.5-12.4,37.2-16.6c7.4-2.3,16.2-2.9,26.4-1.9s19.7,3.7,28.7,8.1c9,4.4,16.2,10.5,21.7,18.3
		c5.5,7.8,7.4,17.4,5.6,28.7c-2.2,12.1-7.6,25.4-16,39.8c-8.5,14.4-19.1,28.8-31.8,43.3c-12.7,14.5-26.9,28.4-42.4,41.7
		c-15.6,13.3-31.4,25-47.6,35c-16.2,10.1-32,17.9-47.6,23.7c-15.5,5.7-29.6,8.1-42.4,7.1c-9.2-0.8-18-4-26.3-9.4
		c-8.3-5.5-14.9-12.1-19.7-19.8c-4.8-7.7-7.1-16-6.8-24.9c0.3-8.9,4.2-17.2,11.7-25.1c2.6-2.3,6-3.5,10.1-3.6
		c4.1-0.1,7.8,0.6,11.3,1.9c3.4,1.4,6,3.2,7.6,5.5c1.7,2.3,1.6,4.7-0.3,7.1c-8.5,10.9-13.5,19.6-15,26c-1.5,6.4-0.6,10.9,2.7,13.5
		c3.3,2.6,8.5,3.6,15.5,3c7-0.6,14.8-2.4,23.3-5.5c8.5-3,17.3-6.9,26.4-11.5c9-4.6,17.3-9.8,24.9-15.6
		c23.1-17.2,45.1-36.4,65.8-57.8s38.9-46.6,54.2-75.8c7.6-14.4,10.3-23.9,8.2-28.5c-2.1-4.6-7.5-5.7-16.1-3.3
		c-8.6,2.4-19.7,7.4-33.1,14.9c-13.5,7.6-27.8,16-42.8,25.3c-15.1,9.3-30.2,18.8-45.4,28.3c-15.2,9.5-28.5,17.4-40.1,23.6
		c-5.5,3-11.7,5.6-18.6,7.9c-6.9,2.3-13.9,4.1-20.8,5.3c-6.9,1.3-13.8,1.8-20.6,1.7c-6.8-0.2-12.8-1.4-18.1-3.6
		c-15.7-6.4-24.4-16.9-26.2-31.4c-1.7-14.5,1.2-31,8.9-49.6c7.7-18.5,19-38.3,34.1-59.1C-3347.3-1586.6-3330.6-1606.6-3312.4-1625.8
		z"/>
	<path class="st0" d="M-3040.5-1507.1c-1.8,0.7-4.3,1-7.4,1.1c-3.1,0.1-6-0.3-8.9-1c-2.8-0.7-5.3-1.8-7.4-3.3
		c-2.1-1.5-3.3-3.4-3.8-5.6c-0.3-1.9-0.3-4.6,0-8c0.3-3.4,0.9-6.9,1.7-10.4c0.8-3.5,1.9-6.9,3.4-10c1.5-3.1,3.2-5.3,5.1-6.7
		c2-1.1,4.8-1.5,8.3-1.4c3.5,0.1,7,0.7,10.4,1.7c3.5,1,6.4,2.3,8.8,3.8c2.4,1.5,3.8,3.3,4.2,5.2c0.7,1.8,0.6,4.4-0.3,7.8
		c-0.9,3.4-2,6.9-3.5,10.5c-1.5,3.6-3.2,7-5.2,10.1C-3036.9-1510.1-3038.8-1508-3040.5-1507.1z"/>
	<path class="st0" d="M-2891.1-1626.4c3-5.2,6.2-7.1,9.8-5.8c3.6,1.3,4.1,5.2,1.5,11.6c-0.7,2-2.9,6.3-6.7,13
		c-3.8,6.7-8.5,15.4-14.1,26.2c-5.6,10.8-12,23.3-19.1,37.5c-7.1,14.2-14.3,29.5-21.6,45.9c-8.5,19.5-14.7,38-18.5,55.3
		c-3.8,17.3-6.5,32.8-8.2,46.5c-1.7,13.7-2.9,25-3.6,34c-0.7,9-2.3,14.6-4.6,16.8c-2.3,2.2-5.6,4.1-9.8,5.8
		c-4.2,1.7-8.4,2.6-12.4,2.9c-4,0.2-7.2-0.5-9.6-2.3c-2.3-1.7-2.7-5.3-1.2-10.7c0.9-4.1,2.8-13.6,5.6-28.3
		c2.8-14.8,6.2-32.1,10.1-52.1c3.9-20,8.2-41.4,13-64.2c4.8-22.8,9.5-44.4,14.3-64.7c-4,8-8.1,15.3-12.3,21.9
		c-4.2,6.6-8.1,10.6-11.7,11.9c-1.8,0.7-4.5,1-7.9,1c-3.4,0-7-0.3-10.6-0.9c-3.6-0.6-7.2-1.6-10.6-2.9c-3.4-1.4-5.9-3.3-7.5-5.8
		c-1.2-2.3-1.5-6.9-1.1-13.8c0.5-6.9,1.5-14.5,3.2-22.8s3.7-16.6,6.1-24.9c2.4-8.2,5-14.8,7.7-19.5c1.3-2.2,3.6-3.5,7.1-4.1
		c3.4-0.5,7.1-0.4,11,0.5c3.9,0.8,7.7,2.2,11.2,4c3.6,1.8,5.9,3.8,7,5.8c1.7,1.8,1.5,6.2-0.5,13.1c-2,6.9-4.3,13.8-6.8,20.7
		c-2.5,6.9-4.5,12.8-5.9,17.6c-1.4,4.8-0.6,6,2.3,3.6c2.1-1.8,4.5-4.9,7.3-9.3c2.7-4.4,5.6-9.5,8.5-15.2c3-5.7,5.9-11.7,8.9-17.9
		c2.9-6.2,5.7-11.9,8.4-16.9c1.7-3,2.9-5.6,3.7-7.8c0.8-2.2,1.6-3.6,2.4-4.2c2-1.1,4.6-1.6,7.7-1.7c3.1-0.1,6.1,0.2,9.1,0.9
		c3,0.7,5.6,1.9,8,3.6c2.3,1.7,3.9,3.7,4.7,5.8c0.9,2.4,0.3,6.6-1.7,12.5s-4.6,13.3-7.8,22.1c-3.2,8.9-6.9,19.3-11,31.3
		c-4.2,12-7.9,25.3-11.3,39.9c0.6-1.2,2.7-6.1,6.4-14.7c3.7-8.5,8.3-18.7,13.9-30.5s11.7-24,18.4-36.7
		C-2903.5-1604.9-2897.1-1616.3-2891.1-1626.4z"/>
	<path class="st0" d="M-2782.2-1661c4.3-6.3,7-8.9,8.1-7.5c1.2,1.3,1.1,4.6-0.1,9.8c-1.1,5.6-3.1,12.3-6,20.2
		c-2.9,7.9-6.4,15.7-10.5,23.4c-4.2,7.7-8.8,14.8-14,21.5c-5.2,6.7-10.5,11.5-16,14.5c-3.8,2-9.3,2.9-16.6,2.6
		c-7.3-0.3-14.8-1.8-22.5-4.6c-7.7-2.8-14.7-6.6-20.9-11.6s-10-11.1-11.1-18.2c-1-5.8-0.6-11.9,1.2-18.2c1.9-6.3,4.4-12.2,7.6-17.7
		c3.2-5.4,6.8-10.2,10.7-14.1c3.9-4,7.5-6.6,10.9-7.8c2.7-1,6.1-1.3,10.2-1.1c4.1,0.3,8,1.1,11.7,2.5c3.8,1.4,7.1,3.4,9.9,6
		c2.8,2.6,4.7,5.6,5.6,9.1c0.6,3.6-0.3,8.3-2.7,14.1c-2.4,5.8-5.3,11.8-8.6,17.8c-3.8,6.8-8.4,14.2-13.8,22
		c7.4-0.6,17.4-6.5,30-17.9C-2806.5-1627.8-2794.2-1642.6-2782.2-1661z M-2839.3-1650.5c-1.5-0.5-4.1,1.2-7.7,5.1
		c-3.6,3.9-6.9,8.4-9.9,13.6c-3,5.2-5.1,10.5-6.4,16c-1.3,5.5-0.7,9.4,1.9,12c1.5-1.6,3.7-4.8,6.6-9.6c2.9-4.8,5.7-10,8.4-15.4
		c2.7-5.4,4.9-10.2,6.5-14.4C-2838.2-1647.5-2838.1-1649.9-2839.3-1650.5z"/>
	<path class="st0" d="M-2752.7-1708.7c4.3-1.5,8.5-1.8,12.8-1c4.3,0.9,7.4,3.1,9.3,6.5c8.6-1,15.6,0.8,21,5.4
		c5.4,4.6,9.1,10.7,11.1,18.2c8-1.8,14.9-5.7,20.9-11.6c6-5.9,10.1-12,12.3-18.3c1.5-3.6,3-6.2,4.7-7.9c1.7-1.6,3.2-2.3,4.6-2.2
		c1.4,0.2,2.5,1.1,3.1,2.8c0.6,1.7,0.7,3.8,0.2,6.4c-1.9,10-6.4,20-13.3,30c-6.9,10-17.7,18.7-32.3,26c-1.8,7.5-4.8,14.8-9,21.8
		c-4.2,7-10,13.2-17.4,18.6c-3.2,2.5-7.7,4.1-13.5,4.8c-5.8,0.7-11.8,0.2-18-1.3c-6.2-1.6-11.9-4.3-17.2-8.3
		c-5.2-4-8.5-9.4-9.9-16.1c-1.6-6.3-2.1-13.3-1.5-20.9c0.6-7.6,2.1-14.9,4.5-22c2.5-7.1,6-13.4,10.5-19
		C-2765.1-1702.3-2759.4-1706.3-2752.7-1708.7z M-2744.1-1626.6c2.4,1.9,5.6,0.8,9.6-3.4c4-4.2,7.4-9.7,10.1-16.5
		c-4.2-1.2-8.3-3.5-12.2-6.7c-3.9-3.2-7.3-7.5-10.2-12.6c-2.7,8.9-3.9,17.1-3.6,24.7C-2750-1633.5-2747.9-1628.7-2744.1-1626.6z"/>
	<path class="st0" d="M-2664.1-1726.3c1.2-2.5,3.1-4,5.9-4.4c2.8-0.5,5.6-0.3,8.5,0.6c2.9,0.9,5.7,2.3,8.5,4.2
		c2.8,1.9,4.7,3.9,5.7,6c1.4,1.9,2.2,4.6,2.6,8.1c0.4,3.5,0.5,7.1,0.2,10.8c-0.2,3.7-0.5,7.1-0.8,10.1c-0.3,3-0.4,5.2-0.2,6.5
		c1.2-1.5,3.6-5.8,7.2-13.1c3.6-7.3,7.3-15.1,11.3-23.4c3.9-8.3,7.7-15.8,11.3-22.6c3.6-6.8,6.1-10.8,7.4-11.9c1-1,3.1-1.9,6.3-2.5
		c3.2-0.6,6.6-0.8,10.1-0.5c3.5,0.3,6.9,1,10,2.1c3.1,1.1,5.5,2.8,6.9,5c1.5,2.2,1.7,6.6,0.8,13.1c-0.9,6.5-2,13.4-3.3,20.5
		c-1.2,7.1-2.3,13.6-3.2,19.2c-0.9,5.7-0.4,8.7,1.4,9c1.8,0.4,4.8-2,8.8-7.3c4-5.2,8.2-11.4,12.8-18.5c4.5-7.1,8.6-14.2,12.3-21.2
		c3.7-7,6.4-12,8.1-15c1.7-3,3.3-4.9,5-5.6c1.6-0.7,3.1-0.7,4.5,0.2c1.4,0.9,2.3,2.3,2.8,4.2c0.5,1.9,0.5,4.1,0.1,6.7
		c-0.8,2.7-2.6,7.6-5.6,14.6c-3,7.1-6.4,14.7-10.2,22.7c-3.8,8.1-7.6,15.5-11.4,22.4c-3.8,6.8-7,11.3-9.7,13.3
		c-3.9,3.5-8.8,5.8-14.8,7.1c-5.9,1.3-11.8,1.8-17.7,1.7c-5.9-0.1-11.2-1.2-15.8-3.1c-4.7-2-7.7-4.5-9.2-7.8c-0.7-1.1-1.1-3.7-1-7.9
		c0.1-4.2,0.4-8.4,0.9-12.7c0.5-4.3,1.1-8.3,1.7-11.9c0.6-3.6,0.8-5.6,0.7-5.9c-5.5,12.6-10.1,22.7-13.8,30.2
		c-3.7,7.5-7.5,14.6-11.6,21.1c-4,6.6-7.2,10.3-9.7,11.2c-4,1.4-8.6,1.6-13.7,0.5c-5.2-1.1-9.2-4-11.9-8.9c-1.1-2-2-5.9-2.9-11.6
		c-0.8-5.7-1.3-11.9-1.5-18.6c-0.1-6.7,0.2-13.3,1.1-20C-2668.4-1716.5-2666.7-1722-2664.1-1726.3z"/>
	<path d="M-1210.7,1201.9c8-8.4,18.7-18.7,32-31c13.3-12.3,28.2-24.7,44.6-37c16.4-12.4,33.7-24.1,51.9-35.3
		c18.2-11.1,36.1-19.8,53.6-26.1c17.5-6.3,34.3-9.1,50.3-8.6c16,0.5,29.8,6.1,41.5,16.7c5.1,4.7,7.7,10.1,7.8,16.1
		c0.1,6-1.6,12.3-4.9,18.8c-3.3,6.5-7.9,12.9-13.5,19.3c-5.7,6.3-11.6,12.2-17.9,17.7c-6.3,5.5-12.4,10.2-18.2,14
		c-5.9,3.8-10.5,6.3-13.8,7.5c-7.5,3-14.4,4.5-20.6,4.5c-6.2,0-11.1-0.8-14.8-2.5c-3.7-1.6-5.6-3.7-5.9-6.4
		c-0.3-2.7,1.8-5.1,6.2-7.4c3.4-1.9,8.1-4.9,14.1-8.9c6-4,12.2-8.6,18.9-13.7c6.6-5.1,13-10.6,19.2-16.4
		c6.2-5.8,11.4-11.3,15.6-16.4c4.2-5.1,6.8-9.7,7.7-13.8c0.9-4.1-0.5-7.2-4.3-9.3c-8.7-4.1-19.8-4-33.4,0.3
		c-13.6,4.3-28.5,11.7-44.7,22.1c-16.2,10.4-33.2,23.2-50.9,38.2c-17.7,15.1-35.1,31.3-52.3,48.8c-17.2,17.5-33.4,35.4-48.7,53.7
		c-15.3,18.4-28.7,36.1-40.1,53.2c-11.4,17.1-20.2,33-26.4,47.6s-8.6,26.5-7.4,35.7c0.8,6.2,3.6,9,8.2,8.4c4.6-0.6,9.8-2.5,15.5-5.8
		c5.7-3.2,11.3-7,16.8-11.4c5.5-4.4,9.5-7.3,12-8.9c10.8-7.3,22-15.2,33.6-23.6c11.6-8.4,23.4-16.6,35.4-24.5
		c12-7.9,24-15.3,36.2-22.2c12.2-6.9,24.5-12.4,37.2-16.6c7.4-2.3,16.2-2.9,26.4-1.9s19.7,3.7,28.7,8.1c9,4.4,16.2,10.5,21.7,18.3
		c5.5,7.8,7.4,17.4,5.6,28.7c-2.2,12.1-7.6,25.4-16,39.8c-8.5,14.4-19.1,28.8-31.8,43.3c-12.7,14.5-26.9,28.4-42.4,41.7
		c-15.6,13.3-31.4,25-47.6,35c-16.2,10.1-32,17.9-47.6,23.7c-15.5,5.7-29.6,8.1-42.4,7.1c-9.2-0.8-18-4-26.3-9.4
		c-8.3-5.5-14.9-12.1-19.7-19.8c-4.8-7.7-7.1-16-6.8-24.9c0.3-8.9,4.2-17.2,11.7-25.1c2.6-2.3,6-3.5,10.1-3.6
		c4.1-0.1,7.8,0.6,11.3,1.9c3.4,1.4,6,3.2,7.6,5.5c1.7,2.3,1.6,4.7-0.3,7.1c-8.5,10.9-13.5,19.6-15,26c-1.5,6.4-0.6,10.9,2.7,13.5
		c3.3,2.6,8.5,3.6,15.5,3c7-0.6,14.8-2.4,23.3-5.5c8.5-3,17.3-6.9,26.4-11.5c9-4.6,17.3-9.8,24.9-15.6
		c23.1-17.2,45.1-36.4,65.8-57.8s38.9-46.6,54.2-75.8c7.6-14.4,10.3-23.9,8.2-28.5c-2.1-4.6-7.5-5.7-16.1-3.3
		c-8.6,2.4-19.7,7.4-33.1,14.9c-13.5,7.6-27.8,16-42.8,25.3c-15.1,9.3-30.2,18.8-45.4,28.3c-15.2,9.5-28.5,17.4-40.1,23.6
		c-5.5,3-11.7,5.6-18.6,7.9c-6.9,2.3-13.9,4.1-20.8,5.3c-6.9,1.3-13.8,1.8-20.6,1.7c-6.8-0.2-12.8-1.4-18.1-3.6
		c-15.7-6.4-24.4-16.9-26.2-31.4c-1.7-14.5,1.2-31,8.9-49.6c7.7-18.5,19-38.3,34.1-59.1C-1245.7,1241.2-1229,1221.1-1210.7,1201.9z"
		/>
	<path d="M-938.8,1320.7c-1.8,0.7-4.3,1-7.4,1.1c-3.1,0.1-6-0.3-8.9-1c-2.8-0.7-5.3-1.8-7.4-3.3c-2.1-1.5-3.3-3.4-3.8-5.6
		c-0.3-1.9-0.3-4.6,0-8c0.3-3.4,0.9-6.9,1.7-10.4c0.8-3.5,1.9-6.9,3.4-10c1.5-3.1,3.2-5.3,5.1-6.7c2-1.1,4.8-1.5,8.3-1.4
		c3.5,0.1,7,0.7,10.4,1.7c3.5,1,6.4,2.3,8.8,3.8c2.4,1.5,3.8,3.3,4.2,5.2c0.7,1.8,0.6,4.4-0.3,7.8c-0.9,3.4-2,6.9-3.5,10.5
		c-1.5,3.6-3.2,7-5.2,10.1C-935.3,1317.7-937.1,1319.7-938.8,1320.7z"/>
	<path d="M-789.4,1201.4c3-5.2,6.2-7.1,9.8-5.8c3.6,1.3,4.1,5.2,1.5,11.6c-0.7,2-2.9,6.3-6.7,13c-3.8,6.7-8.5,15.4-14.1,26.2
		c-5.6,10.8-12,23.3-19.1,37.5c-7.1,14.2-14.3,29.5-21.6,45.9c-8.5,19.5-14.7,38-18.5,55.3c-3.8,17.3-6.5,32.8-8.2,46.5
		c-1.7,13.7-2.9,25-3.6,34c-0.7,9-2.3,14.6-4.6,16.8c-2.3,2.2-5.6,4.1-9.8,5.8c-4.2,1.7-8.4,2.6-12.4,2.9c-4,0.2-7.2-0.5-9.6-2.3
		c-2.3-1.7-2.7-5.3-1.2-10.7c0.9-4.1,2.8-13.6,5.6-28.3c2.8-14.8,6.2-32.1,10.1-52.1c3.9-20,8.2-41.4,13-64.2
		c4.8-22.8,9.5-44.4,14.3-64.7c-4,8-8.1,15.3-12.3,21.9c-4.2,6.6-8.1,10.6-11.7,11.9c-1.8,0.7-4.5,1-7.9,1c-3.4,0-7-0.3-10.6-0.9
		c-3.6-0.6-7.2-1.6-10.6-2.9c-3.4-1.4-5.9-3.3-7.5-5.8c-1.2-2.3-1.5-6.9-1.1-13.8c0.5-6.9,1.5-14.5,3.2-22.8s3.7-16.6,6.1-24.9
		c2.4-8.2,5-14.8,7.7-19.5c1.3-2.2,3.6-3.5,7.1-4.1c3.4-0.5,7.1-0.4,11,0.5c3.9,0.8,7.7,2.2,11.2,4c3.6,1.8,5.9,3.8,7,5.8
		c1.7,1.8,1.5,6.2-0.5,13.1c-2,6.9-4.3,13.8-6.8,20.7c-2.5,6.9-4.5,12.8-5.9,17.6c-1.4,4.8-0.6,6,2.3,3.6c2.1-1.8,4.5-4.9,7.3-9.3
		c2.7-4.4,5.6-9.5,8.5-15.2c3-5.7,5.9-11.7,8.9-17.9c2.9-6.2,5.7-11.9,8.4-16.9c1.7-3,2.9-5.6,3.7-7.8c0.8-2.2,1.6-3.6,2.4-4.2
		c2-1.1,4.6-1.6,7.7-1.7c3.1-0.1,6.1,0.2,9.1,0.9c3,0.7,5.6,1.9,8,3.6c2.3,1.7,3.9,3.7,4.7,5.8c0.9,2.4,0.3,6.6-1.7,12.5
		s-4.6,13.3-7.8,22.1c-3.2,8.9-6.9,19.3-11,31.3c-4.2,12-7.9,25.3-11.3,39.9c0.6-1.2,2.7-6.1,6.4-14.7c3.7-8.5,8.3-18.7,13.9-30.5
		s11.7-24,18.4-36.7C-801.8,1222.8-795.5,1211.4-789.4,1201.4z"/>
	<path d="M-680.5,1166.7c4.3-6.3,7-8.9,8.1-7.5c1.2,1.3,1.1,4.6-0.1,9.8c-1.1,5.6-3.1,12.3-6,20.2c-2.9,7.9-6.4,15.7-10.5,23.4
		c-4.2,7.7-8.8,14.8-14,21.5c-5.2,6.7-10.5,11.5-16,14.5c-3.8,2-9.3,2.9-16.6,2.6c-7.3-0.3-14.8-1.8-22.5-4.6
		c-7.7-2.8-14.7-6.6-20.9-11.6s-10-11.1-11.1-18.2c-1-5.8-0.6-11.9,1.2-18.2c1.9-6.3,4.4-12.2,7.6-17.7c3.2-5.4,6.8-10.2,10.7-14.1
		c3.9-4,7.5-6.6,10.9-7.8c2.7-1,6.1-1.3,10.2-1.1c4.1,0.3,8,1.1,11.7,2.5c3.8,1.4,7.1,3.4,9.9,6c2.8,2.6,4.7,5.6,5.6,9.1
		c0.6,3.6-0.3,8.3-2.7,14.1c-2.4,5.8-5.3,11.8-8.6,17.8c-3.8,6.8-8.4,14.2-13.8,22c7.4-0.6,17.4-6.5,30-17.9
		C-704.9,1200-692.5,1185.1-680.5,1166.7z M-737.6,1177.2c-1.5-0.5-4.1,1.2-7.7,5.1c-3.6,3.9-6.9,8.4-9.9,13.6
		c-3,5.2-5.1,10.5-6.4,16c-1.3,5.5-0.7,9.4,1.9,12c1.5-1.6,3.7-4.8,6.6-9.6c2.9-4.8,5.7-10,8.4-15.4c2.7-5.4,4.9-10.2,6.5-14.4
		C-736.6,1180.2-736.4,1177.8-737.6,1177.2z"/>
	<path d="M-651.1,1119.1c4.3-1.5,8.5-1.8,12.8-1c4.3,0.9,7.4,3.1,9.3,6.5c8.6-1,15.6,0.8,21,5.4c5.4,4.6,9.1,10.7,11.1,18.2
		c8-1.8,14.9-5.7,20.9-11.6c6-5.9,10.1-12,12.3-18.3c1.5-3.6,3-6.2,4.7-7.9c1.7-1.6,3.2-2.3,4.6-2.2c1.4,0.2,2.5,1.1,3.1,2.8
		c0.6,1.7,0.7,3.8,0.2,6.4c-1.9,10-6.4,20-13.3,30c-6.9,10-17.7,18.7-32.3,26c-1.8,7.5-4.8,14.8-9,21.8c-4.2,7-10,13.2-17.4,18.6
		c-3.2,2.5-7.7,4.1-13.5,4.8c-5.8,0.7-11.8,0.2-18-1.3c-6.2-1.6-11.9-4.3-17.2-8.3c-5.2-4-8.5-9.4-9.9-16.1
		c-1.6-6.3-2.1-13.3-1.5-20.9c0.6-7.6,2.1-14.9,4.5-22c2.5-7.1,6-13.4,10.5-19C-663.4,1125.4-657.8,1121.4-651.1,1119.1z
		 M-642.5,1201.1c2.4,1.9,5.6,0.8,9.6-3.4c4-4.2,7.4-9.7,10.1-16.5c-4.2-1.2-8.3-3.5-12.2-6.7c-3.9-3.2-7.3-7.5-10.2-12.6
		c-2.7,8.9-3.9,17.1-3.6,24.7C-648.4,1194.2-646.3,1199-642.5,1201.1z"/>
	<path d="M-562.4,1101.4c1.2-2.5,3.1-4,5.9-4.4c2.8-0.5,5.6-0.3,8.5,0.6c2.9,0.9,5.7,2.3,8.5,4.2c2.8,1.9,4.7,3.9,5.7,6
		c1.4,1.9,2.2,4.6,2.6,8.1c0.4,3.5,0.5,7.1,0.2,10.8c-0.2,3.7-0.5,7.1-0.8,10.1c-0.3,3-0.4,5.2-0.2,6.5c1.2-1.5,3.6-5.8,7.2-13.1
		c3.6-7.3,7.3-15.1,11.3-23.4c3.9-8.3,7.7-15.8,11.3-22.6c3.6-6.8,6.1-10.8,7.4-11.9c1-1,3.1-1.9,6.3-2.5c3.2-0.6,6.6-0.8,10.1-0.5
		c3.5,0.3,6.9,1,10,2.1c3.1,1.1,5.5,2.8,6.9,5c1.5,2.2,1.7,6.6,0.8,13.1c-0.9,6.5-2,13.4-3.3,20.5c-1.2,7.1-2.3,13.6-3.2,19.2
		c-0.9,5.7-0.4,8.7,1.4,9c1.8,0.4,4.8-2,8.8-7.3c4-5.2,8.2-11.4,12.8-18.5c4.5-7.1,8.6-14.2,12.3-21.2c3.7-7,6.4-12,8.1-15
		c1.7-3,3.3-4.9,5-5.6c1.6-0.7,3.1-0.7,4.5,0.2c1.4,0.9,2.3,2.3,2.8,4.2c0.5,1.9,0.5,4.1,0.1,6.7c-0.8,2.7-2.6,7.6-5.6,14.6
		c-3,7.1-6.4,14.7-10.2,22.7c-3.8,8.1-7.6,15.5-11.4,22.4c-3.8,6.8-7,11.3-9.7,13.3c-3.9,3.5-8.8,5.8-14.8,7.1
		c-5.9,1.3-11.8,1.8-17.7,1.7c-5.9-0.1-11.2-1.2-15.8-3.1c-4.7-2-7.7-4.5-9.2-7.8c-0.7-1.1-1.1-3.7-1-7.9c0.1-4.2,0.4-8.4,0.9-12.7
		c0.5-4.3,1.1-8.3,1.7-11.9c0.6-3.6,0.8-5.6,0.7-5.9c-5.5,12.6-10.1,22.7-13.8,30.2c-3.7,7.5-7.5,14.6-11.6,21.1
		c-4,6.6-7.2,10.3-9.7,11.2c-4,1.4-8.6,1.6-13.7,0.5c-5.2-1.1-9.2-4-11.9-8.9c-1.1-2-2-5.9-2.9-11.6c-0.8-5.7-1.3-11.9-1.5-18.6
		c-0.1-6.7,0.2-13.3,1.1-20C-566.7,1111.3-565,1105.8-562.4,1101.4z"/>
	<path class="st1" d="M-656.7-424.1c1.1-5-1.9-10.1-6.8-11.3c-1.8-0.5-3.8-0.6-5.6,0c-6.2,1.9-8.6,18.5-6.2,20
		c2.4,1.4,6.1,6.2,11.4,5.2C-660.6-410.9-658-418.1-656.7-424.1z"/>
	<path class="st1" d="M-625.1-506.1c0,0-20.9,54.8-14.7,68.1c3.5,7.6,9.2,7.2,13.5,5.4c2.8-1.2,5.3-3.1,7.3-5.5l19.7-23.2
		c0,0,29.7-39.6,32.8-50.9c0,0-40.9,257.1-52.8,261.9c-11.9,4.8-6.2-19.5-6.2-19.5s19.5-78.9,55.1-149.2c0,0,47.5-89.8,53.2-97.9
		c5.7-8.1,16.7,52.3,34.9,12.8l16.7-31.2c1.9-3.5,2.9-7.4,2.6-11.4c-0.4-7.1-4.5-15.4-23.9-9.2c-30.9,10-39.4,60.8,1.9,74.1
		c41.3,13.3,72.2-66.1,72.2-66.1s10.5-45.6,34.7-46.5c0,0-50.9,56.4-14.4,74.8c11.8,5.9,26,4.3,36.6-3.6c4.3-3.1,8.2-7.2,10.1-12.3
		c5.7-14.7,22.3-57.5-28-61.8c-49.6-4.2,55.6,68.3,82.9-1c0.7-1.9,1.3-3.8,1.8-5.8c1.7-7,7-25.6,10.6-8c0.5,2.4,0.8,4.9,1,7.4
		c0.6,9.2,2,36.3-3.1,43.2c-6.2,8.4,34.2-33.9,48.5-67.2c0,0,5.2-18.1,18.5-15.2c13.3,2.9,11.9,15.2,0,56.1
		c-11.9,40.9,23.3,8.1,30.4-1c7.1-9,32.1-45.2,31.8-55.4"/>
	<path class="st2" d="M-734.4-551c0,0,115.5-70.6,65.2-89.8c-50.3-19.2-157.2,47.6-220.3,116.8s-98,144.5-104.8,174
		c-10,43.6,37.4,39.6,67.4,19.2s130.2-104.6,169-101.6c0,0,77,5.3,12.8,84.5s-134.7,142.2-196.8,133.7s-12.8-54.5-12.8-54.5"/>
</g>
<g id="Layer_2">
	<g>
		<path class="st3" d="M429.8,256.8c1.1-5-1.9-10.1-6.8-11.3c-1.8-0.5-3.8-0.6-5.6,0c-6.2,1.9-8.6,18.5-6.2,20
			c2.4,1.4,6.1,6.2,11.4,5.2C425.9,270,428.5,262.8,429.8,256.8z"/>
		<path class="st3" d="M461.4,174.8c0,0-20.9,54.8-14.7,68.1c3.5,7.6,9.2,7.2,13.5,5.4c2.8-1.2,5.3-3.1,7.3-5.5l19.7-23.2
			c0,0,29.7-39.6,32.8-50.9c0,0-40.9,257.1-52.8,261.9s-6.2-19.5-6.2-19.5s19.5-78.9,55.1-149.2c0,0,47.5-89.8,53.2-97.9
			c5.7-8.1,16.7,52.3,34.9,12.8l16.7-31.2c1.9-3.5,2.9-7.4,2.6-11.4c-0.4-7.1-4.5-15.4-23.9-9.2c-30.9,10-39.4,60.8,1.9,74.1
			c41.3,13.3,72.2-66.1,72.2-66.1s10.5-45.6,34.7-46.5c0,0-50.9,56.4-14.4,74.8c11.8,5.9,26,4.3,36.6-3.6c4.3-3.1,8.2-7.2,10.1-12.3
			c5.7-14.7,22.3-57.5-28-61.8c-49.6-4.2,55.6,68.3,82.9-1c0.7-1.9,1.3-3.8,1.8-5.8c1.7-7,7-25.6,10.6-8c0.5,2.4,0.8,4.9,1,7.4
			c0.6,9.2,2,36.3-3.1,43.2c-6.2,8.4,34.2-33.9,48.5-67.2c0,0,5.2-18.1,18.5-15.2c13.3,2.9,11.9,15.2,0,56.1
			c-11.9,40.9,23.3,8.1,30.4-1c7.1-9,32.1-45.2,31.8-55.4"/>
		<path class="st4" d="M352.1,130c0,0,115.5-70.6,65.2-89.8S260.1,87.7,197.1,157S99,301.4,92.3,331c-10,43.6,37.4,39.6,67.4,19.2
			s130.2-104.6,169-101.6c0,0,77,5.3,12.8,84.5S206.7,475.4,144.7,466.8s-12.8-54.5-12.8-54.5"/>
	</g>
</g>
</svg>
